<?xml version="1.0"?>
<svg xmlns="http://www.w3.org/2000/svg" id="Layer_2" data-name="Layer 2" viewBox="0 0 128 128" width="512" height="512"><path d="M80.253,37.958H45.747A1.75,1.75,0,0,0,44,39.708V56.2a1.749,1.749,0,0,0,1.75,1.75H80.253A1.749,1.749,0,0,0,82,56.2V39.708A1.75,1.75,0,0,0,80.253,37.958ZM78.5,54.45H47.5V41.458H78.5Z"/><path d="M96.25,36.2H90v-.5a5.757,5.757,0,0,0-5.75-5.75H72.483v-11.5H89.67a6.126,6.126,0,1,0,0-12.251H36.33a6.126,6.126,0,1,0,0,12.251H53.517v11.5H41.747A5.757,5.757,0,0,0,36,35.708v.5H23V26.712a1.752,1.752,0,0,0-.615-1.332L11.25,15.9V7.958A1.751,1.751,0,0,0,9.5,6.208H1.75A1.751,1.751,0,0,0,0,7.958V87.95A1.75,1.75,0,0,0,1.75,89.7H9.5a1.75,1.75,0,0,0,1.75-1.75V80.012l11.135-9.484A1.749,1.749,0,0,0,23,69.2V59.7H36v.5a5.756,5.756,0,0,0,5.75,5.75H84.253A5.756,5.756,0,0,0,90,60.2v-.5H96.25a8.259,8.259,0,0,1,8.25,8.25V80.026a1.751,1.751,0,0,0,1.75,1.75h20a1.751,1.751,0,0,0,1.75-1.75V67.954A31.786,31.786,0,0,0,96.25,36.2ZM33.7,12.333A2.629,2.629,0,0,1,36.33,9.708H89.67a2.626,2.626,0,1,1,0,5.251H36.33A2.629,2.629,0,0,1,33.7,12.333Zm23.313,6.126H68.983v11.5H57.017ZM7.75,86.2H3.5V9.708H7.75V86.2ZM19.5,68.388l-8.25,7.027V20.494l8.25,7.027V68.388ZM23,56.2V39.7H36V56.2Zm63.5,4a2.252,2.252,0,0,1-2.25,2.25H41.747A2.252,2.252,0,0,1,39.5,60.2V35.708a2.252,2.252,0,0,1,2.25-2.25H84.253a2.252,2.252,0,0,1,2.25,2.25V60.2Zm38,18.076H108V67.954A11.763,11.763,0,0,0,96.25,56.2H90V39.7H96.25a28.282,28.282,0,0,1,28.25,28.25Z"/><path d="M114.81,89.04c-1.056,1.528-10.31,15.1-10.31,21a11.75,11.75,0,0,0,23.5,0c0-5.9-9.254-19.474-10.31-21A1.815,1.815,0,0,0,114.81,89.04Zm1.44,29.252a8.259,8.259,0,0,1-8.25-8.25c0-3.186,4.594-11.271,8.25-16.867,3.656,5.6,8.25,13.681,8.25,16.867A8.259,8.259,0,0,1,116.25,118.292Z"/></svg>
